<mxfile host="Electron" agent="Mozilla/5.0 (X11; Linux x86_64) AppleWebKit/537.36 (KHTML, like Gecko) draw.io/28.1.2 Chrome/138.0.7204.243 Electron/37.4.0 Safari/537.36" version="28.1.2" pages="2">
  <diagram name="Page-1" id="qyKOhX7wKubJx3A1yhwW">
    <mxGraphModel dx="950" dy="575" grid="1" gridSize="10" guides="1" tooltips="1" connect="1" arrows="1" fold="1" page="1" pageScale="1" pageWidth="827" pageHeight="1169" math="1" shadow="0">
      <root>
        <mxCell id="0" />
        <mxCell id="1" parent="0" />
        <mxCell id="rzhAfjj5DbKfYVlqXlJ3-1" value="&lt;div&gt;&lt;font style=&quot;font-size: 15px;&quot;&gt;\(X\)&lt;/font&gt;&lt;/div&gt;" style="rounded=0;whiteSpace=wrap;html=1;fillColor=#dae8fc;strokeColor=#6c8ebf;" parent="1" vertex="1">
          <mxGeometry x="320" y="90" width="120" height="60" as="geometry" />
        </mxCell>
        <mxCell id="rzhAfjj5DbKfYVlqXlJ3-5" value="" style="edgeStyle=orthogonalEdgeStyle;rounded=0;orthogonalLoop=1;jettySize=auto;html=1;" parent="1" source="rzhAfjj5DbKfYVlqXlJ3-2" target="rzhAfjj5DbKfYVlqXlJ3-3" edge="1">
          <mxGeometry relative="1" as="geometry" />
        </mxCell>
        <mxCell id="gshfcQeMo9viiWqzpoU_-51" style="edgeStyle=orthogonalEdgeStyle;rounded=0;orthogonalLoop=1;jettySize=auto;html=1;entryX=0;entryY=0.5;entryDx=0;entryDy=0;" parent="1" source="rzhAfjj5DbKfYVlqXlJ3-3" target="gshfcQeMo9viiWqzpoU_-39" edge="1">
          <mxGeometry relative="1" as="geometry" />
        </mxCell>
        <mxCell id="SKo15fLE6GQcyllnIHAm-7" value="" style="edgeStyle=orthogonalEdgeStyle;rounded=0;orthogonalLoop=1;jettySize=auto;html=1;" parent="1" source="rzhAfjj5DbKfYVlqXlJ3-3" target="kir_VGYGd0OHTudOm7uo-5" edge="1">
          <mxGeometry relative="1" as="geometry" />
        </mxCell>
        <mxCell id="rzhAfjj5DbKfYVlqXlJ3-3" value="$$\hat{X}_{flat}$$" style="rounded=1;whiteSpace=wrap;html=1;fontSize=15;" parent="1" vertex="1">
          <mxGeometry x="345" y="564" width="70" height="40" as="geometry" />
        </mxCell>
        <mxCell id="rzhAfjj5DbKfYVlqXlJ3-6" value="$$f_{W_e}$$" style="ellipse;whiteSpace=wrap;html=1;" parent="1" vertex="1">
          <mxGeometry x="350" y="314" width="60" height="30" as="geometry" />
        </mxCell>
        <mxCell id="rzhAfjj5DbKfYVlqXlJ3-7" value="$$f_{W_d}$$" style="ellipse;whiteSpace=wrap;html=1;" parent="1" vertex="1">
          <mxGeometry x="350" y="493" width="60" height="30" as="geometry" />
        </mxCell>
        <mxCell id="gshfcQeMo9viiWqzpoU_-1" value="$$(n \times M&amp;nbsp;\times&amp;nbsp;p)$$" style="text;html=1;align=center;verticalAlign=middle;whiteSpace=wrap;rounded=0;fillColor=none;strokeColor=#b85450;gradientColor=none;fillStyle=auto;shadow=0;fontSize=10;" parent="1" vertex="1">
          <mxGeometry x="440" y="105" width="81" height="35" as="geometry" />
        </mxCell>
        <mxCell id="gshfcQeMo9viiWqzpoU_-5" value="&lt;div&gt;Input Covariates&lt;/div&gt;&amp;nbsp;measured at baseline" style="text;html=1;align=center;verticalAlign=middle;whiteSpace=wrap;rounded=0;" parent="1" vertex="1">
          <mxGeometry x="310" y="62" width="140" height="30" as="geometry" />
        </mxCell>
        <mxCell id="gshfcQeMo9viiWqzpoU_-7" value="$$\mu$$" style="rounded=1;whiteSpace=wrap;html=1;fontSize=15;" parent="1" vertex="1">
          <mxGeometry x="290" y="369" width="60" height="30" as="geometry" />
        </mxCell>
        <mxCell id="gshfcQeMo9viiWqzpoU_-18" style="edgeStyle=orthogonalEdgeStyle;rounded=0;orthogonalLoop=1;jettySize=auto;html=1;entryX=0.75;entryY=0;entryDx=0;entryDy=0;" parent="1" source="gshfcQeMo9viiWqzpoU_-8" target="rzhAfjj5DbKfYVlqXlJ3-2" edge="1">
          <mxGeometry relative="1" as="geometry" />
        </mxCell>
        <mxCell id="gshfcQeMo9viiWqzpoU_-8" value="$$\sigma^2$$" style="rounded=1;whiteSpace=wrap;html=1;fontSize=15;" parent="1" vertex="1">
          <mxGeometry x="410" y="369" width="60" height="30" as="geometry" />
        </mxCell>
        <mxCell id="gshfcQeMo9viiWqzpoU_-9" value="" style="endArrow=none;html=1;rounded=0;entryX=0.5;entryY=1;entryDx=0;entryDy=0;exitX=0.5;exitY=0;exitDx=0;exitDy=0;" parent="1" source="gshfcQeMo9viiWqzpoU_-35" target="rzhAfjj5DbKfYVlqXlJ3-1" edge="1">
          <mxGeometry width="50" height="50" relative="1" as="geometry">
            <mxPoint x="320" y="330" as="sourcePoint" />
            <mxPoint x="370" y="280" as="targetPoint" />
          </mxGeometry>
        </mxCell>
        <mxCell id="gshfcQeMo9viiWqzpoU_-11" value="" style="endArrow=classic;html=1;rounded=0;entryX=0.25;entryY=0;entryDx=0;entryDy=0;" parent="1" source="rzhAfjj5DbKfYVlqXlJ3-6" target="gshfcQeMo9viiWqzpoU_-8" edge="1">
          <mxGeometry width="50" height="50" relative="1" as="geometry">
            <mxPoint x="320" y="463" as="sourcePoint" />
            <mxPoint x="370" y="413" as="targetPoint" />
          </mxGeometry>
        </mxCell>
        <mxCell id="gshfcQeMo9viiWqzpoU_-12" value="" style="endArrow=classic;html=1;rounded=0;" parent="1" source="rzhAfjj5DbKfYVlqXlJ3-6" target="gshfcQeMo9viiWqzpoU_-7" edge="1">
          <mxGeometry width="50" height="50" relative="1" as="geometry">
            <mxPoint x="560" y="373" as="sourcePoint" />
            <mxPoint x="591" y="402" as="targetPoint" />
          </mxGeometry>
        </mxCell>
        <mxCell id="gshfcQeMo9viiWqzpoU_-15" value="" style="edgeStyle=orthogonalEdgeStyle;rounded=0;orthogonalLoop=1;jettySize=auto;html=1;" parent="1" source="gshfcQeMo9viiWqzpoU_-14" target="rzhAfjj5DbKfYVlqXlJ3-2" edge="1">
          <mxGeometry relative="1" as="geometry" />
        </mxCell>
        <mxCell id="gshfcQeMo9viiWqzpoU_-14" value="$$\varepsilon \sim \text{N}$$" style="ellipse;whiteSpace=wrap;html=1;aspect=fixed;fontSize=15;fillColor=#d5e8d4;strokeColor=#82b366;" parent="1" vertex="1">
          <mxGeometry x="210" y="421" width="54" height="54" as="geometry" />
        </mxCell>
        <mxCell id="gshfcQeMo9viiWqzpoU_-17" style="edgeStyle=orthogonalEdgeStyle;rounded=0;orthogonalLoop=1;jettySize=auto;html=1;entryX=0.325;entryY=0.002;entryDx=0;entryDy=0;entryPerimeter=0;" parent="1" source="gshfcQeMo9viiWqzpoU_-7" target="rzhAfjj5DbKfYVlqXlJ3-2" edge="1">
          <mxGeometry relative="1" as="geometry" />
        </mxCell>
        <mxCell id="gshfcQeMo9viiWqzpoU_-25" value="" style="shape=table;startSize=0;container=1;collapsible=0;childLayout=tableLayout;fontSize=11;fillColor=none;strokeColor=default;perimeterSpacing=0;strokeWidth=0.5;opacity=80;" parent="1" vertex="1">
          <mxGeometry x="12.5" y="79" width="140" height="93" as="geometry" />
        </mxCell>
        <mxCell id="gshfcQeMo9viiWqzpoU_-26" value="" style="shape=tableRow;horizontal=0;startSize=0;swimlaneHead=0;swimlaneBody=0;strokeColor=inherit;top=0;left=0;bottom=0;right=0;collapsible=0;dropTarget=0;fillColor=none;points=[[0,0.5],[1,0.5]];portConstraint=eastwest;fontSize=16;" parent="gshfcQeMo9viiWqzpoU_-25" vertex="1">
          <mxGeometry width="140" height="20" as="geometry" />
        </mxCell>
        <mxCell id="gshfcQeMo9viiWqzpoU_-27" value="\(n\): sample size" style="shape=partialRectangle;html=1;whiteSpace=wrap;connectable=0;strokeColor=inherit;overflow=hidden;fillColor=none;top=0;left=0;bottom=0;right=0;pointerEvents=1;fontSize=12;align=left;spacingLeft=5;" parent="gshfcQeMo9viiWqzpoU_-26" vertex="1">
          <mxGeometry width="140" height="20" as="geometry">
            <mxRectangle width="140" height="20" as="alternateBounds" />
          </mxGeometry>
        </mxCell>
        <mxCell id="gshfcQeMo9viiWqzpoU_-28" value="" style="shape=tableRow;horizontal=0;startSize=0;swimlaneHead=0;swimlaneBody=0;strokeColor=inherit;top=0;left=0;bottom=0;right=0;collapsible=0;dropTarget=0;fillColor=none;points=[[0,0.5],[1,0.5]];portConstraint=eastwest;fontSize=16;" parent="gshfcQeMo9viiWqzpoU_-25" vertex="1">
          <mxGeometry y="20" width="140" height="18" as="geometry" />
        </mxCell>
        <mxCell id="gshfcQeMo9viiWqzpoU_-29" value="\(p\): # covariates" style="shape=partialRectangle;html=1;whiteSpace=wrap;connectable=0;strokeColor=inherit;overflow=hidden;fillColor=none;top=0;left=0;bottom=0;right=0;pointerEvents=1;fontSize=12;align=left;spacingLeft=5;" parent="gshfcQeMo9viiWqzpoU_-28" vertex="1">
          <mxGeometry width="140" height="18" as="geometry">
            <mxRectangle width="140" height="18" as="alternateBounds" />
          </mxGeometry>
        </mxCell>
        <mxCell id="gshfcQeMo9viiWqzpoU_-30" value="" style="shape=tableRow;horizontal=0;startSize=0;swimlaneHead=0;swimlaneBody=0;strokeColor=inherit;top=0;left=0;bottom=0;right=0;collapsible=0;dropTarget=0;fillColor=none;points=[[0,0.5],[1,0.5]];portConstraint=eastwest;fontSize=16;" parent="gshfcQeMo9viiWqzpoU_-25" vertex="1">
          <mxGeometry y="38" width="140" height="19" as="geometry" />
        </mxCell>
        <mxCell id="gshfcQeMo9viiWqzpoU_-31" value="\(M\): # measurements" style="shape=partialRectangle;html=1;whiteSpace=wrap;connectable=0;strokeColor=inherit;overflow=hidden;fillColor=none;top=0;left=0;bottom=0;right=0;pointerEvents=1;fontSize=12;align=left;spacingLeft=5;" parent="gshfcQeMo9viiWqzpoU_-30" vertex="1">
          <mxGeometry width="140" height="19" as="geometry">
            <mxRectangle width="140" height="19" as="alternateBounds" />
          </mxGeometry>
        </mxCell>
        <mxCell id="gshfcQeMo9viiWqzpoU_-32" style="shape=tableRow;horizontal=0;startSize=0;swimlaneHead=0;swimlaneBody=0;strokeColor=inherit;top=0;left=0;bottom=0;right=0;collapsible=0;dropTarget=0;fillColor=none;points=[[0,0.5],[1,0.5]];portConstraint=eastwest;fontSize=16;" parent="gshfcQeMo9viiWqzpoU_-25" vertex="1">
          <mxGeometry y="57" width="140" height="18" as="geometry" />
        </mxCell>
        <mxCell id="gshfcQeMo9viiWqzpoU_-33" value="\(k\): VAE latent dimension" style="shape=partialRectangle;html=1;whiteSpace=wrap;connectable=0;strokeColor=inherit;overflow=hidden;fillColor=none;top=0;left=0;bottom=0;right=0;pointerEvents=1;fontSize=12;align=left;spacingLeft=5;" parent="gshfcQeMo9viiWqzpoU_-32" vertex="1">
          <mxGeometry width="140" height="18" as="geometry">
            <mxRectangle width="140" height="18" as="alternateBounds" />
          </mxGeometry>
        </mxCell>
        <mxCell id="gshfcQeMo9viiWqzpoU_-48" style="shape=tableRow;horizontal=0;startSize=0;swimlaneHead=0;swimlaneBody=0;strokeColor=inherit;top=0;left=0;bottom=0;right=0;collapsible=0;dropTarget=0;fillColor=none;points=[[0,0.5],[1,0.5]];portConstraint=eastwest;fontSize=16;" parent="gshfcQeMo9viiWqzpoU_-25" vertex="1">
          <mxGeometry y="75" width="140" height="18" as="geometry" />
        </mxCell>
        <mxCell id="gshfcQeMo9viiWqzpoU_-49" value="\(T\): # time points" style="shape=partialRectangle;html=1;whiteSpace=wrap;connectable=0;strokeColor=inherit;overflow=hidden;fillColor=none;top=0;left=0;bottom=0;right=0;pointerEvents=1;fontSize=12;align=left;spacingLeft=5;" parent="gshfcQeMo9viiWqzpoU_-48" vertex="1">
          <mxGeometry width="140" height="18" as="geometry">
            <mxRectangle width="140" height="18" as="alternateBounds" />
          </mxGeometry>
        </mxCell>
        <mxCell id="gshfcQeMo9viiWqzpoU_-34" value="Notation" style="text;html=1;align=center;verticalAlign=middle;whiteSpace=wrap;rounded=0;fillColor=#ffe6cc;strokeColor=#d79b00;" parent="1" vertex="1">
          <mxGeometry x="12.5" y="49" width="140" height="30" as="geometry" />
        </mxCell>
        <mxCell id="gshfcQeMo9viiWqzpoU_-36" value="$$(n * M&amp;nbsp;\times&amp;nbsp;p)$$" style="text;html=1;align=center;verticalAlign=middle;whiteSpace=wrap;rounded=0;fillColor=none;strokeColor=#b85450;gradientColor=none;fillStyle=auto;shadow=0;fontSize=10;" parent="1" vertex="1">
          <mxGeometry x="415" y="247.25" width="80" height="25.5" as="geometry" />
        </mxCell>
        <mxCell id="SKo15fLE6GQcyllnIHAm-4" value="" style="edgeStyle=orthogonalEdgeStyle;rounded=0;orthogonalLoop=1;jettySize=auto;html=1;entryX=0.5;entryY=0;entryDx=0;entryDy=0;" parent="1" source="gshfcQeMo9viiWqzpoU_-37" target="rzhAfjj5DbKfYVlqXlJ3-6" edge="1">
          <mxGeometry relative="1" as="geometry" />
        </mxCell>
        <mxCell id="gshfcQeMo9viiWqzpoU_-37" value="$$X_{flat}$$" style="rounded=1;whiteSpace=wrap;html=1;fontSize=15;" parent="1" vertex="1">
          <mxGeometry x="345" y="240" width="70" height="40" as="geometry" />
        </mxCell>
        <mxCell id="gshfcQeMo9viiWqzpoU_-38" value="$$(n * M&amp;nbsp;\times&amp;nbsp;p)$$" style="text;html=1;align=center;verticalAlign=middle;whiteSpace=wrap;rounded=0;fillColor=none;strokeColor=#b85450;gradientColor=none;fillStyle=auto;shadow=0;fontSize=10;" parent="1" vertex="1">
          <mxGeometry x="265" y="570.25" width="80" height="25.5" as="geometry" />
        </mxCell>
        <mxCell id="gshfcQeMo9viiWqzpoU_-39" value="$$\hat{X}$$" style="rounded=1;whiteSpace=wrap;html=1;fontSize=15;fillColor=#f8cecc;strokeColor=#b85450;" parent="1" vertex="1">
          <mxGeometry x="540" y="564" width="70" height="40" as="geometry" />
        </mxCell>
        <mxCell id="gshfcQeMo9viiWqzpoU_-41" value="Output" style="text;html=1;align=center;verticalAlign=middle;whiteSpace=wrap;rounded=0;" parent="1" vertex="1">
          <mxGeometry x="547" y="540" width="60" height="30" as="geometry" />
        </mxCell>
        <mxCell id="gshfcQeMo9viiWqzpoU_-42" value="$$(n \times M&amp;nbsp;\times&amp;nbsp;p)$$" style="text;html=1;align=center;verticalAlign=middle;whiteSpace=wrap;rounded=0;fillColor=none;strokeColor=#b85450;gradientColor=none;fillStyle=auto;shadow=0;fontSize=10;" parent="1" vertex="1">
          <mxGeometry x="610" y="570.25" width="80" height="25.5" as="geometry" />
        </mxCell>
        <mxCell id="SKo15fLE6GQcyllnIHAm-9" value="" style="edgeStyle=orthogonalEdgeStyle;rounded=0;orthogonalLoop=1;jettySize=auto;html=1;entryX=0;entryY=0.5;entryDx=0;entryDy=0;" parent="1" source="gshfcQeMo9viiWqzpoU_-52" target="kir_VGYGd0OHTudOm7uo-5" edge="1">
          <mxGeometry relative="1" as="geometry">
            <mxPoint x="300" y="689.5" as="targetPoint" />
          </mxGeometry>
        </mxCell>
        <mxCell id="gshfcQeMo9viiWqzpoU_-52" value="$$y_0$$" style="rounded=0;whiteSpace=wrap;html=1;fillColor=#dae8fc;strokeColor=#6c8ebf;" parent="1" vertex="1">
          <mxGeometry x="111" y="649" width="90" height="41" as="geometry" />
        </mxCell>
        <mxCell id="gshfcQeMo9viiWqzpoU_-53" value="$$(n * M \times 1)$$" style="text;html=1;align=center;verticalAlign=middle;whiteSpace=wrap;rounded=0;fillColor=none;strokeColor=#b85450;gradientColor=none;fillStyle=auto;shadow=0;fontSize=10;" parent="1" vertex="1">
          <mxGeometry x="36" y="656.75" width="75" height="25.5" as="geometry" />
        </mxCell>
        <mxCell id="kir_VGYGd0OHTudOm7uo-4" value="&lt;div&gt;$$h_{ta}$$&lt;/div&gt;" style="rounded=1;whiteSpace=wrap;html=1;fontSize=15;" parent="1" vertex="1">
          <mxGeometry x="345" y="1072" width="70" height="40" as="geometry" />
        </mxCell>
        <mxCell id="SKo15fLE6GQcyllnIHAm-11" value="" style="edgeStyle=orthogonalEdgeStyle;rounded=0;orthogonalLoop=1;jettySize=auto;html=1;entryX=0.5;entryY=0;entryDx=0;entryDy=0;" parent="1" source="kir_VGYGd0OHTudOm7uo-5" target="SKo15fLE6GQcyllnIHAm-10" edge="1">
          <mxGeometry relative="1" as="geometry" />
        </mxCell>
        <mxCell id="kir_VGYGd0OHTudOm7uo-5" value="concat over last dim" style="ellipse;whiteSpace=wrap;html=1;fontSize=10;" parent="1" vertex="1">
          <mxGeometry x="348" y="649" width="65" height="40" as="geometry" />
        </mxCell>
        <mxCell id="kir_VGYGd0OHTudOm7uo-12" value="" style="swimlane;startSize=0;dashed=1;strokeColor=light-dark(#e5a50a, #ededed);container=0;" parent="1" vertex="1">
          <mxGeometry x="170" y="290" width="480" height="250" as="geometry" />
        </mxCell>
        <mxCell id="kir_VGYGd0OHTudOm7uo-13" value="&lt;b&gt;Variational Autoencoder&lt;/b&gt;" style="text;html=1;align=center;verticalAlign=middle;whiteSpace=wrap;rounded=0;" parent="kir_VGYGd0OHTudOm7uo-12" vertex="1">
          <mxGeometry x="405" y="10" width="60" height="30" as="geometry" />
        </mxCell>
        <mxCell id="kir_VGYGd0OHTudOm7uo-14" value="$$Query$$" style="rounded=1;whiteSpace=wrap;html=1;fontSize=15;" parent="1" vertex="1">
          <mxGeometry x="201" y="1266" width="70" height="40" as="geometry" />
        </mxCell>
        <mxCell id="kir_VGYGd0OHTudOm7uo-15" value="$$Value$$" style="rounded=1;whiteSpace=wrap;html=1;fontSize=15;" parent="1" vertex="1">
          <mxGeometry x="489" y="1266" width="70" height="40" as="geometry" />
        </mxCell>
        <mxCell id="kir_VGYGd0OHTudOm7uo-16" value="$$Key$$" style="rounded=1;whiteSpace=wrap;html=1;fontSize=15;" parent="1" vertex="1">
          <mxGeometry x="345" y="1266" width="70" height="40" as="geometry" />
        </mxCell>
        <mxCell id="kir_VGYGd0OHTudOm7uo-18" value="" style="endArrow=classic;html=1;rounded=0;exitX=0.01;exitY=0.87;exitDx=0;exitDy=0;exitPerimeter=0;entryX=0.5;entryY=0;entryDx=0;entryDy=0;" parent="1" source="kir_VGYGd0OHTudOm7uo-4" target="kir_VGYGd0OHTudOm7uo-14" edge="1">
          <mxGeometry width="50" height="50" relative="1" as="geometry">
            <mxPoint x="330" y="1246" as="sourcePoint" />
            <mxPoint x="380" y="1196" as="targetPoint" />
          </mxGeometry>
        </mxCell>
        <mxCell id="kir_VGYGd0OHTudOm7uo-19" value="" style="endArrow=classic;html=1;rounded=0;entryX=0.5;entryY=0;entryDx=0;entryDy=0;exitX=0.989;exitY=0.882;exitDx=0;exitDy=0;exitPerimeter=0;" parent="1" source="kir_VGYGd0OHTudOm7uo-4" target="kir_VGYGd0OHTudOm7uo-15" edge="1">
          <mxGeometry width="50" height="50" relative="1" as="geometry">
            <mxPoint x="530" y="1186" as="sourcePoint" />
            <mxPoint x="420" y="1311" as="targetPoint" />
          </mxGeometry>
        </mxCell>
        <mxCell id="kir_VGYGd0OHTudOm7uo-20" value="" style="endArrow=classic;html=1;rounded=0;entryX=0.5;entryY=0;entryDx=0;entryDy=0;" parent="1" source="kir_VGYGd0OHTudOm7uo-4" target="kir_VGYGd0OHTudOm7uo-16" edge="1">
          <mxGeometry width="50" height="50" relative="1" as="geometry">
            <mxPoint x="540" y="1186" as="sourcePoint" />
            <mxPoint x="430" y="1311" as="targetPoint" />
          </mxGeometry>
        </mxCell>
        <mxCell id="kir_VGYGd0OHTudOm7uo-21" value="$$f_{W_Q}$$" style="ellipse;whiteSpace=wrap;html=1;" parent="1" vertex="1">
          <mxGeometry x="271" y="1176" width="46" height="30" as="geometry" />
        </mxCell>
        <mxCell id="kir_VGYGd0OHTudOm7uo-22" value="$$f_{W_K}$$" style="ellipse;whiteSpace=wrap;html=1;" parent="1" vertex="1">
          <mxGeometry x="357" y="1186" width="46" height="30" as="geometry" />
        </mxCell>
        <mxCell id="kir_VGYGd0OHTudOm7uo-23" value="$$f_{W_V}$$" style="ellipse;whiteSpace=wrap;html=1;" parent="1" vertex="1">
          <mxGeometry x="445" y="1176" width="46" height="30" as="geometry" />
        </mxCell>
        <mxCell id="kir_VGYGd0OHTudOm7uo-26" value="Projections (simple feed forward NN)" style="text;html=1;align=center;verticalAlign=middle;whiteSpace=wrap;rounded=0;dashed=1;strokeColor=default;" parent="1" vertex="1">
          <mxGeometry x="157" y="1177" width="110" height="40" as="geometry" />
        </mxCell>
        <mxCell id="kir_VGYGd0OHTudOm7uo-27" value="$$(n^* \times T \times&amp;nbsp;p&#39;)$$" style="text;html=1;align=center;verticalAlign=middle;whiteSpace=wrap;rounded=0;fillColor=none;strokeColor=#b85450;gradientColor=none;fillStyle=auto;shadow=0;fontSize=10;" parent="1" vertex="1">
          <mxGeometry x="99.5" y="1273.25" width="85" height="25.5" as="geometry" />
        </mxCell>
        <mxCell id="kir_VGYGd0OHTudOm7uo-28" value="" style="swimlane;startSize=0;dashed=1;strokeWidth=0.5;" parent="1" vertex="1">
          <mxGeometry x="185" y="1249" width="390" height="70" as="geometry" />
        </mxCell>
        <mxCell id="kir_VGYGd0OHTudOm7uo-39" value="" style="edgeStyle=orthogonalEdgeStyle;rounded=0;orthogonalLoop=1;jettySize=auto;html=1;" parent="1" source="kir_VGYGd0OHTudOm7uo-29" target="kir_VGYGd0OHTudOm7uo-38" edge="1">
          <mxGeometry relative="1" as="geometry" />
        </mxCell>
        <mxCell id="kir_VGYGd0OHTudOm7uo-29" value="$$S = QK^T$$" style="rounded=1;whiteSpace=wrap;html=1;fontSize=15;" parent="1" vertex="1">
          <mxGeometry x="260" y="1416" width="90" height="45" as="geometry" />
        </mxCell>
        <mxCell id="kir_VGYGd0OHTudOm7uo-30" value="" style="endArrow=classic;html=1;rounded=0;exitX=0.5;exitY=1;exitDx=0;exitDy=0;" parent="1" source="kir_VGYGd0OHTudOm7uo-14" target="kir_VGYGd0OHTudOm7uo-31" edge="1">
          <mxGeometry width="50" height="50" relative="1" as="geometry">
            <mxPoint x="410" y="1456" as="sourcePoint" />
            <mxPoint x="460" y="1406" as="targetPoint" />
          </mxGeometry>
        </mxCell>
        <mxCell id="kir_VGYGd0OHTudOm7uo-34" value="" style="edgeStyle=orthogonalEdgeStyle;rounded=0;orthogonalLoop=1;jettySize=auto;html=1;" parent="1" source="kir_VGYGd0OHTudOm7uo-31" target="kir_VGYGd0OHTudOm7uo-29" edge="1">
          <mxGeometry relative="1" as="geometry" />
        </mxCell>
        <mxCell id="kir_VGYGd0OHTudOm7uo-31" value="dot-product" style="ellipse;whiteSpace=wrap;html=1;" parent="1" vertex="1">
          <mxGeometry x="280" y="1346" width="50" height="40" as="geometry" />
        </mxCell>
        <mxCell id="kir_VGYGd0OHTudOm7uo-32" value="" style="endArrow=classic;html=1;rounded=0;exitX=0.5;exitY=1;exitDx=0;exitDy=0;" parent="1" source="kir_VGYGd0OHTudOm7uo-16" target="kir_VGYGd0OHTudOm7uo-31" edge="1">
          <mxGeometry width="50" height="50" relative="1" as="geometry">
            <mxPoint x="340" y="1366" as="sourcePoint" />
            <mxPoint x="392" y="1411" as="targetPoint" />
          </mxGeometry>
        </mxCell>
        <mxCell id="kir_VGYGd0OHTudOm7uo-35" value="$$(n^* \times T \times T)$$" style="text;html=1;align=center;verticalAlign=middle;whiteSpace=wrap;rounded=0;fillColor=none;strokeColor=#b85450;gradientColor=none;fillStyle=auto;shadow=0;fontSize=10;" parent="1" vertex="1">
          <mxGeometry x="175" y="1425.75" width="85" height="25.5" as="geometry" />
        </mxCell>
        <mxCell id="kir_VGYGd0OHTudOm7uo-38" value="$$A_W = softmax(m(S) / \sqrt p^*)$$" style="rounded=1;whiteSpace=wrap;html=1;fontSize=15;" parent="1" vertex="1">
          <mxGeometry x="189.5" y="1501" width="231" height="50" as="geometry" />
        </mxCell>
        <mxCell id="kir_VGYGd0OHTudOm7uo-41" value="" style="edgeStyle=orthogonalEdgeStyle;rounded=0;orthogonalLoop=1;jettySize=auto;html=1;" parent="1" source="kir_VGYGd0OHTudOm7uo-40" target="kir_VGYGd0OHTudOm7uo-38" edge="1">
          <mxGeometry relative="1" as="geometry" />
        </mxCell>
        <mxCell id="kir_VGYGd0OHTudOm7uo-40" value="&lt;div&gt;mask function for time dependence&lt;/div&gt;" style="rounded=0;whiteSpace=wrap;html=1;fillColor=#dae8fc;strokeColor=#6c8ebf;" parent="1" vertex="1">
          <mxGeometry x="58" y="1505" width="90" height="41" as="geometry" />
        </mxCell>
        <mxCell id="kir_VGYGd0OHTudOm7uo-42" value="dot-product" style="ellipse;whiteSpace=wrap;html=1;" parent="1" vertex="1">
          <mxGeometry x="473" y="1551" width="50" height="40" as="geometry" />
        </mxCell>
        <mxCell id="SKo15fLE6GQcyllnIHAm-31" value="" style="edgeStyle=orthogonalEdgeStyle;rounded=0;orthogonalLoop=1;jettySize=auto;html=1;entryX=0.5;entryY=0;entryDx=0;entryDy=0;" parent="1" source="kir_VGYGd0OHTudOm7uo-43" target="SKo15fLE6GQcyllnIHAm-29" edge="1">
          <mxGeometry relative="1" as="geometry" />
        </mxCell>
        <mxCell id="kir_VGYGd0OHTudOm7uo-43" value="$$h_{out}$$" style="rounded=1;whiteSpace=wrap;html=1;fontSize=15;" parent="1" vertex="1">
          <mxGeometry x="335" y="1607" width="90" height="45" as="geometry" />
        </mxCell>
        <mxCell id="kir_VGYGd0OHTudOm7uo-44" value="" style="endArrow=classic;html=1;rounded=0;exitX=0.034;exitY=0.71;exitDx=0;exitDy=0;entryX=0.965;entryY=0.095;entryDx=0;entryDy=0;entryPerimeter=0;exitPerimeter=0;" parent="1" source="kir_VGYGd0OHTudOm7uo-42" target="kir_VGYGd0OHTudOm7uo-43" edge="1">
          <mxGeometry width="50" height="50" relative="1" as="geometry">
            <mxPoint x="480" y="1702" as="sourcePoint" />
            <mxPoint x="530" y="1652" as="targetPoint" />
          </mxGeometry>
        </mxCell>
        <mxCell id="kir_VGYGd0OHTudOm7uo-45" value="" style="endArrow=classic;html=1;rounded=0;entryX=0;entryY=0;entryDx=0;entryDy=0;" parent="1" source="kir_VGYGd0OHTudOm7uo-38" target="kir_VGYGd0OHTudOm7uo-42" edge="1">
          <mxGeometry width="50" height="50" relative="1" as="geometry">
            <mxPoint x="561" y="1606" as="sourcePoint" />
            <mxPoint x="510" y="1646" as="targetPoint" />
          </mxGeometry>
        </mxCell>
        <mxCell id="kir_VGYGd0OHTudOm7uo-46" value="" style="endArrow=classic;html=1;rounded=0;entryX=0.5;entryY=0;entryDx=0;entryDy=0;" parent="1" source="kir_VGYGd0OHTudOm7uo-15" target="kir_VGYGd0OHTudOm7uo-42" edge="1">
          <mxGeometry width="50" height="50" relative="1" as="geometry">
            <mxPoint x="601" y="1426" as="sourcePoint" />
            <mxPoint x="550" y="1466" as="targetPoint" />
          </mxGeometry>
        </mxCell>
        <mxCell id="kir_VGYGd0OHTudOm7uo-47" value="$$(n^* \times T \times&amp;nbsp;p&#39;)$$" style="text;html=1;align=center;verticalAlign=middle;whiteSpace=wrap;rounded=0;fillColor=none;strokeColor=#b85450;gradientColor=none;fillStyle=auto;shadow=0;fontSize=10;" parent="1" vertex="1">
          <mxGeometry x="250" y="1616.75" width="85" height="25.5" as="geometry" />
        </mxCell>
        <mxCell id="SKo15fLE6GQcyllnIHAm-63" value="" style="edgeStyle=orthogonalEdgeStyle;rounded=0;orthogonalLoop=1;jettySize=auto;html=1;" parent="1" source="kir_VGYGd0OHTudOm7uo-48" target="kir_VGYGd0OHTudOm7uo-50" edge="1">
          <mxGeometry relative="1" as="geometry" />
        </mxCell>
        <mxCell id="kir_VGYGd0OHTudOm7uo-48" value="$$f_{W_o}$$" style="ellipse;whiteSpace=wrap;html=1;" parent="1" vertex="1">
          <mxGeometry x="355" y="2187" width="50" height="40" as="geometry" />
        </mxCell>
        <mxCell id="kir_VGYGd0OHTudOm7uo-50" value="$$\hat{y}$$" style="rounded=1;whiteSpace=wrap;html=1;fontSize=15;fillColor=#f8cecc;strokeColor=#b85450;" parent="1" vertex="1">
          <mxGeometry x="335.5" y="2255" width="90" height="45" as="geometry" />
        </mxCell>
        <mxCell id="kir_VGYGd0OHTudOm7uo-52" value="$$(n^* \times T)$$" style="text;html=1;align=center;verticalAlign=middle;whiteSpace=wrap;rounded=0;fillColor=none;strokeColor=#b85450;gradientColor=none;fillStyle=auto;shadow=0;fontSize=10;" parent="1" vertex="1">
          <mxGeometry x="250.5" y="2265" width="85" height="25.5" as="geometry" />
        </mxCell>
        <mxCell id="kir_VGYGd0OHTudOm7uo-53" value="Output layer - FNN" style="text;html=1;align=center;verticalAlign=middle;whiteSpace=wrap;rounded=0;" parent="1" vertex="1">
          <mxGeometry x="249" y="2197" width="100" height="30" as="geometry" />
        </mxCell>
        <mxCell id="kir_VGYGd0OHTudOm7uo-56" value="" style="swimlane;startSize=0;dashed=1;strokeColor=light-dark(#e5a50a, #ededed);container=0;" parent="1" vertex="1">
          <mxGeometry x="40" y="1150" width="550" height="580" as="geometry">
            <mxRectangle x="40" y="960" width="50" height="40" as="alternateBounds" />
          </mxGeometry>
        </mxCell>
        <mxCell id="kir_VGYGd0OHTudOm7uo-57" value="&lt;b&gt;Scaled Dot-Product Attention&lt;/b&gt;" style="text;html=1;align=center;verticalAlign=middle;whiteSpace=wrap;rounded=0;" parent="kir_VGYGd0OHTudOm7uo-56" vertex="1">
          <mxGeometry y="-1" width="185" height="30" as="geometry" />
        </mxCell>
        <mxCell id="SKo15fLE6GQcyllnIHAm-3" style="edgeStyle=orthogonalEdgeStyle;rounded=0;orthogonalLoop=1;jettySize=auto;html=1;entryX=0.5;entryY=0;entryDx=0;entryDy=0;" parent="1" source="gshfcQeMo9viiWqzpoU_-35" target="gshfcQeMo9viiWqzpoU_-37" edge="1">
          <mxGeometry relative="1" as="geometry" />
        </mxCell>
        <mxCell id="SKo15fLE6GQcyllnIHAm-5" value="Outcome measured at baseline" style="text;html=1;align=center;verticalAlign=middle;whiteSpace=wrap;rounded=0;" parent="1" vertex="1">
          <mxGeometry x="99.5" y="620" width="115" height="30" as="geometry" />
        </mxCell>
        <mxCell id="SKo15fLE6GQcyllnIHAm-22" value="" style="edgeStyle=orthogonalEdgeStyle;rounded=0;orthogonalLoop=1;jettySize=auto;html=1;entryX=0.5;entryY=0;entryDx=0;entryDy=0;" parent="1" source="SKo15fLE6GQcyllnIHAm-18" target="kir_VGYGd0OHTudOm7uo-4" edge="1">
          <mxGeometry relative="1" as="geometry">
            <mxPoint x="380" y="1030" as="targetPoint" />
          </mxGeometry>
        </mxCell>
        <mxCell id="SKo15fLE6GQcyllnIHAm-18" value="Sinusoidal Positional Encoding" style="ellipse;whiteSpace=wrap;html=1;fontSize=10;" parent="1" vertex="1">
          <mxGeometry x="337" y="971" width="85" height="50" as="geometry" />
        </mxCell>
        <mxCell id="SKo15fLE6GQcyllnIHAm-24" value="Inputs" style="rounded=0;whiteSpace=wrap;html=1;fillColor=#dae8fc;strokeColor=#6c8ebf;" parent="1" vertex="1">
          <mxGeometry x="12.5" y="174" width="137.5" height="20" as="geometry" />
        </mxCell>
        <mxCell id="SKo15fLE6GQcyllnIHAm-26" value="&lt;div&gt;Outputs&lt;/div&gt;" style="rounded=0;whiteSpace=wrap;html=1;fillColor=#f8cecc;strokeColor=#b85450;" parent="1" vertex="1">
          <mxGeometry x="12.5" y="195" width="137.5" height="20" as="geometry" />
        </mxCell>
        <mxCell id="SKo15fLE6GQcyllnIHAm-27" value="Stochastic" style="rounded=0;whiteSpace=wrap;html=1;fillColor=#d5e8d4;strokeColor=#82b366;" parent="1" vertex="1">
          <mxGeometry x="12.5" y="216" width="137.5" height="20" as="geometry" />
        </mxCell>
        <mxCell id="SKo15fLE6GQcyllnIHAm-35" value="Elementwise sum" style="ellipse;whiteSpace=wrap;html=1;" parent="1" vertex="1">
          <mxGeometry x="480" y="1824" width="80" height="60" as="geometry" />
        </mxCell>
        <mxCell id="SKo15fLE6GQcyllnIHAm-37" value="" style="edgeStyle=orthogonalEdgeStyle;rounded=0;orthogonalLoop=1;jettySize=auto;html=1;entryX=0;entryY=0.5;entryDx=0;entryDy=0;" parent="1" source="SKo15fLE6GQcyllnIHAm-32" target="SKo15fLE6GQcyllnIHAm-35" edge="1">
          <mxGeometry relative="1" as="geometry">
            <mxPoint x="380.5" y="1865.5" as="targetPoint" />
          </mxGeometry>
        </mxCell>
        <mxCell id="SKo15fLE6GQcyllnIHAm-38" value="" style="endArrow=classic;html=1;rounded=0;exitX=1;exitY=0.5;exitDx=0;exitDy=0;entryX=1;entryY=0;entryDx=0;entryDy=0;" parent="1" source="kir_VGYGd0OHTudOm7uo-4" target="SKo15fLE6GQcyllnIHAm-35" edge="1">
          <mxGeometry width="50" height="50" relative="1" as="geometry">
            <mxPoint x="650" y="1290" as="sourcePoint" />
            <mxPoint x="620" y="1750" as="targetPoint" />
            <Array as="points">
              <mxPoint x="610" y="1140" />
              <mxPoint x="660" y="1280" />
              <mxPoint x="660" y="1610" />
              <mxPoint x="620" y="1730" />
            </Array>
          </mxGeometry>
        </mxCell>
        <mxCell id="SKo15fLE6GQcyllnIHAm-39" value="Residual connection" style="text;html=1;align=center;verticalAlign=middle;whiteSpace=wrap;rounded=0;" parent="1" vertex="1">
          <mxGeometry x="563" y="1839" width="60" height="30" as="geometry" />
        </mxCell>
        <mxCell id="SKo15fLE6GQcyllnIHAm-49" value="" style="edgeStyle=orthogonalEdgeStyle;rounded=0;orthogonalLoop=1;jettySize=auto;html=1;" parent="1" source="SKo15fLE6GQcyllnIHAm-40" target="SKo15fLE6GQcyllnIHAm-48" edge="1">
          <mxGeometry relative="1" as="geometry" />
        </mxCell>
        <mxCell id="SKo15fLE6GQcyllnIHAm-40" value="$$f_{W_{r1}}$$" style="ellipse;whiteSpace=wrap;html=1;" parent="1" vertex="1">
          <mxGeometry x="355.5" y="1963" width="50" height="40" as="geometry" />
        </mxCell>
        <mxCell id="SKo15fLE6GQcyllnIHAm-45" value="" style="edgeStyle=orthogonalEdgeStyle;rounded=0;orthogonalLoop=1;jettySize=auto;html=1;entryX=0.5;entryY=0;entryDx=0;entryDy=0;" parent="1" source="SKo15fLE6GQcyllnIHAm-41" target="SKo15fLE6GQcyllnIHAm-40" edge="1">
          <mxGeometry relative="1" as="geometry" />
        </mxCell>
        <mxCell id="SKo15fLE6GQcyllnIHAm-52" value="" style="edgeStyle=orthogonalEdgeStyle;rounded=0;orthogonalLoop=1;jettySize=auto;html=1;entryX=0.5;entryY=0;entryDx=0;entryDy=0;" parent="1" source="SKo15fLE6GQcyllnIHAm-41" target="SKo15fLE6GQcyllnIHAm-46" edge="1">
          <mxGeometry relative="1" as="geometry">
            <mxPoint x="250.5" y="1909" as="targetPoint" />
          </mxGeometry>
        </mxCell>
        <mxCell id="SKo15fLE6GQcyllnIHAm-41" value="$$h_{r_1}$$" style="rounded=1;whiteSpace=wrap;html=1;fontSize=15;" parent="1" vertex="1">
          <mxGeometry x="335.5" y="1886.5" width="90" height="45" as="geometry" />
        </mxCell>
        <mxCell id="SKo15fLE6GQcyllnIHAm-42" value="" style="endArrow=classic;html=1;rounded=0;exitX=0.5;exitY=1;exitDx=0;exitDy=0;entryX=1;entryY=0.5;entryDx=0;entryDy=0;" parent="1" source="SKo15fLE6GQcyllnIHAm-35" target="SKo15fLE6GQcyllnIHAm-41" edge="1">
          <mxGeometry width="50" height="50" relative="1" as="geometry">
            <mxPoint x="513" y="2000" as="sourcePoint" />
            <mxPoint x="563" y="1950" as="targetPoint" />
            <Array as="points" />
          </mxGeometry>
        </mxCell>
        <mxCell id="SKo15fLE6GQcyllnIHAm-44" value="&lt;b&gt;non&lt;/b&gt;-linear FFN + Dropout" style="text;html=1;align=center;verticalAlign=middle;whiteSpace=wrap;rounded=0;" parent="1" vertex="1">
          <mxGeometry x="410" y="1969" width="60" height="30" as="geometry" />
        </mxCell>
        <mxCell id="SKo15fLE6GQcyllnIHAm-46" value="Elementwise sum" style="ellipse;whiteSpace=wrap;html=1;" parent="1" vertex="1">
          <mxGeometry x="191" y="2022.5" width="80" height="60" as="geometry" />
        </mxCell>
        <mxCell id="SKo15fLE6GQcyllnIHAm-47" value="Residual connection" style="text;html=1;align=center;verticalAlign=middle;whiteSpace=wrap;rounded=0;" parent="1" vertex="1">
          <mxGeometry x="129" y="2037.5" width="60" height="30" as="geometry" />
        </mxCell>
        <mxCell id="SKo15fLE6GQcyllnIHAm-50" value="" style="edgeStyle=orthogonalEdgeStyle;rounded=0;orthogonalLoop=1;jettySize=auto;html=1;" parent="1" source="SKo15fLE6GQcyllnIHAm-48" target="SKo15fLE6GQcyllnIHAm-46" edge="1">
          <mxGeometry relative="1" as="geometry" />
        </mxCell>
        <mxCell id="SKo15fLE6GQcyllnIHAm-48" value="$$h_{r_1}$$" style="rounded=1;whiteSpace=wrap;html=1;fontSize=15;" parent="1" vertex="1">
          <mxGeometry x="335" y="2030" width="90" height="45" as="geometry" />
        </mxCell>
        <mxCell id="SKo15fLE6GQcyllnIHAm-61" value="" style="edgeStyle=orthogonalEdgeStyle;rounded=0;orthogonalLoop=1;jettySize=auto;html=1;entryX=0.5;entryY=0;entryDx=0;entryDy=0;" parent="1" source="SKo15fLE6GQcyllnIHAm-53" target="kir_VGYGd0OHTudOm7uo-48" edge="1">
          <mxGeometry relative="1" as="geometry" />
        </mxCell>
        <mxCell id="SKo15fLE6GQcyllnIHAm-53" value="$$h_{r_2}$$" style="rounded=1;whiteSpace=wrap;html=1;fontSize=15;" parent="1" vertex="1">
          <mxGeometry x="335" y="2120" width="90" height="45" as="geometry" />
        </mxCell>
        <mxCell id="SKo15fLE6GQcyllnIHAm-56" value="" style="endArrow=classic;html=1;rounded=0;exitX=0.5;exitY=1;exitDx=0;exitDy=0;entryX=0;entryY=0.5;entryDx=0;entryDy=0;" parent="1" source="SKo15fLE6GQcyllnIHAm-46" target="SKo15fLE6GQcyllnIHAm-53" edge="1">
          <mxGeometry width="50" height="50" relative="1" as="geometry">
            <mxPoint x="210.00000000000006" y="2170" as="sourcePoint" />
            <mxPoint x="254.8" y="2130" as="targetPoint" />
          </mxGeometry>
        </mxCell>
        <mxCell id="SKo15fLE6GQcyllnIHAm-57" value="$$(n^* \times T \times&amp;nbsp;p&#39;)$$" style="text;html=1;align=center;verticalAlign=middle;whiteSpace=wrap;rounded=0;fillColor=none;strokeColor=#b85450;gradientColor=none;fillStyle=auto;shadow=0;fontSize=10;" parent="1" vertex="1">
          <mxGeometry x="250" y="1884" width="85" height="25.5" as="geometry" />
        </mxCell>
        <mxCell id="SKo15fLE6GQcyllnIHAm-58" value="$$(n^* \times T \times&amp;nbsp;p&#39;)$$" style="text;html=1;align=center;verticalAlign=middle;whiteSpace=wrap;rounded=0;fillColor=none;strokeColor=#b85450;gradientColor=none;fillStyle=auto;shadow=0;fontSize=10;" parent="1" vertex="1">
          <mxGeometry x="425" y="2042" width="85" height="25.5" as="geometry" />
        </mxCell>
        <mxCell id="SKo15fLE6GQcyllnIHAm-59" value="$$(n^* \times T \times&amp;nbsp;p&#39;)$$" style="text;html=1;align=center;verticalAlign=middle;whiteSpace=wrap;rounded=0;fillColor=none;strokeColor=#b85450;gradientColor=none;fillStyle=auto;shadow=0;fontSize=10;" parent="1" vertex="1">
          <mxGeometry x="425" y="2128" width="85" height="25.5" as="geometry" />
        </mxCell>
        <mxCell id="kir_VGYGd0OHTudOm7uo-58" value="Feed-forward NN" style="text;html=1;align=center;verticalAlign=middle;whiteSpace=wrap;rounded=0;" parent="1" vertex="1">
          <mxGeometry x="416" y="313" width="75" height="30" as="geometry" />
        </mxCell>
        <mxCell id="kir_VGYGd0OHTudOm7uo-60" value="Feed-forward NN" style="text;html=1;align=center;verticalAlign=middle;whiteSpace=wrap;rounded=0;" parent="1" vertex="1">
          <mxGeometry x="413" y="495" width="75" height="30" as="geometry" />
        </mxCell>
        <mxCell id="gshfcQeMo9viiWqzpoU_-35" value="&lt;font style=&quot;font-size: 10px;&quot;&gt;Flatten over first dim&lt;/font&gt;" style="ellipse;whiteSpace=wrap;html=1;" parent="1" vertex="1">
          <mxGeometry x="350" y="171" width="60" height="40" as="geometry" />
        </mxCell>
        <mxCell id="rzhAfjj5DbKfYVlqXlJ3-2" value="$$Z = \mu + \varepsilon \sigma$$" style="rounded=1;whiteSpace=wrap;html=1;" parent="1" vertex="1">
          <mxGeometry x="340" y="433" width="80" height="30" as="geometry" />
        </mxCell>
        <mxCell id="gshfcQeMo9viiWqzpoU_-19" value="$$(n * M&amp;nbsp;\times k)$$" style="text;html=1;align=center;verticalAlign=middle;whiteSpace=wrap;rounded=0;fillColor=none;strokeColor=#b85450;gradientColor=none;fillStyle=auto;shadow=0;fontSize=10;" parent="1" vertex="1">
          <mxGeometry x="420" y="436.75" width="80" height="22.5" as="geometry" />
        </mxCell>
        <mxCell id="SKo15fLE6GQcyllnIHAm-34" value="" style="edgeStyle=orthogonalEdgeStyle;rounded=0;orthogonalLoop=1;jettySize=auto;html=1;" parent="1" source="SKo15fLE6GQcyllnIHAm-29" target="SKo15fLE6GQcyllnIHAm-32" edge="1">
          <mxGeometry relative="1" as="geometry" />
        </mxCell>
        <mxCell id="SKo15fLE6GQcyllnIHAm-29" value="$$f_{W_{att}}$$" style="ellipse;whiteSpace=wrap;html=1;" parent="1" vertex="1">
          <mxGeometry x="355.5" y="1679" width="50" height="40" as="geometry" />
        </mxCell>
        <mxCell id="SKo15fLE6GQcyllnIHAm-30" value="Projection FFN + Dropout" style="text;html=1;align=center;verticalAlign=middle;whiteSpace=wrap;rounded=0;" parent="1" vertex="1">
          <mxGeometry x="255.5" y="1687" width="100" height="30" as="geometry" />
        </mxCell>
        <mxCell id="SKo15fLE6GQcyllnIHAm-32" value="$$h_{out}$$" style="rounded=1;whiteSpace=wrap;html=1;fontSize=15;" parent="1" vertex="1">
          <mxGeometry x="335.5" y="1748" width="90" height="45" as="geometry" />
        </mxCell>
        <mxCell id="SKo15fLE6GQcyllnIHAm-33" value="$$(n^* \times T \times&amp;nbsp;p&#39;)$$" style="text;html=1;align=center;verticalAlign=middle;whiteSpace=wrap;rounded=0;fillColor=none;strokeColor=#b85450;gradientColor=none;fillStyle=auto;shadow=0;fontSize=10;" parent="1" vertex="1">
          <mxGeometry x="250.5" y="1757.75" width="85" height="25.5" as="geometry" />
        </mxCell>
        <mxCell id="kir_VGYGd0OHTudOm7uo-9" value="$$(n^* \times T \times p&#39;)$$" style="text;html=1;align=center;verticalAlign=middle;whiteSpace=wrap;rounded=0;fillColor=none;strokeColor=#b85450;gradientColor=none;fillStyle=auto;shadow=0;fontSize=10;" parent="1" vertex="1">
          <mxGeometry x="259.5" y="1080" width="85" height="22.75" as="geometry" />
        </mxCell>
        <mxCell id="SKo15fLE6GQcyllnIHAm-65" value="" style="swimlane;startSize=0;fillColor=#ffe6cc;strokeColor=#d79b00;dashed=1;" parent="1" vertex="1">
          <mxGeometry x="20" y="1130" width="700" height="970" as="geometry" />
        </mxCell>
        <mxCell id="SKo15fLE6GQcyllnIHAm-66" value="&lt;b&gt;Transformer&lt;/b&gt;" style="text;html=1;align=center;verticalAlign=middle;whiteSpace=wrap;rounded=0;" parent="SKo15fLE6GQcyllnIHAm-65" vertex="1">
          <mxGeometry x="579" y="2" width="120" height="20" as="geometry" />
        </mxCell>
        <mxCell id="SKo15fLE6GQcyllnIHAm-68" value="" style="swimlane;startSize=0;fillColor=#ffe6cc;strokeColor=#d79b00;dashed=1;" parent="1" vertex="1">
          <mxGeometry x="232.5" y="630" width="420" height="410" as="geometry" />
        </mxCell>
        <mxCell id="SKo15fLE6GQcyllnIHAm-69" value="&lt;b&gt;Processing pre-transformer&lt;/b&gt;" style="text;html=1;align=center;verticalAlign=middle;whiteSpace=wrap;rounded=0;" parent="SKo15fLE6GQcyllnIHAm-68" vertex="1">
          <mxGeometry x="293" y="9" width="120" height="20" as="geometry" />
        </mxCell>
        <mxCell id="SKo15fLE6GQcyllnIHAm-10" value="$$h$$" style="rounded=1;whiteSpace=wrap;html=1;fontSize=15;" parent="SKo15fLE6GQcyllnIHAm-68" vertex="1">
          <mxGeometry x="113" y="77.38" width="70" height="40" as="geometry" />
        </mxCell>
        <mxCell id="SKo15fLE6GQcyllnIHAm-12" value="$$(n * M \times&amp;nbsp;p+1)$$" style="text;html=1;align=center;verticalAlign=middle;whiteSpace=wrap;rounded=0;fillColor=none;strokeColor=#b85450;gradientColor=none;fillStyle=auto;shadow=0;fontSize=10;" parent="SKo15fLE6GQcyllnIHAm-68" vertex="1">
          <mxGeometry x="183" y="86.00999999999999" width="94.5" height="22.75" as="geometry" />
        </mxCell>
        <mxCell id="gshfcQeMo9viiWqzpoU_-46" value="expand over time" style="ellipse;whiteSpace=wrap;html=1;fontSize=10;" parent="SKo15fLE6GQcyllnIHAm-68" vertex="1">
          <mxGeometry x="37.5" y="117.38" width="50" height="40" as="geometry" />
        </mxCell>
        <mxCell id="SKo15fLE6GQcyllnIHAm-13" value="" style="edgeStyle=orthogonalEdgeStyle;rounded=0;orthogonalLoop=1;jettySize=auto;html=1;entryX=0.5;entryY=0;entryDx=0;entryDy=0;" parent="SKo15fLE6GQcyllnIHAm-68" source="SKo15fLE6GQcyllnIHAm-10" target="gshfcQeMo9viiWqzpoU_-46" edge="1">
          <mxGeometry relative="1" as="geometry" />
        </mxCell>
        <mxCell id="je9HBZ-PjT7DeAHVx5pH-3" value="" style="edgeStyle=orthogonalEdgeStyle;rounded=0;orthogonalLoop=1;jettySize=auto;html=1;" parent="SKo15fLE6GQcyllnIHAm-68" source="gshfcQeMo9viiWqzpoU_-43" target="je9HBZ-PjT7DeAHVx5pH-2" edge="1">
          <mxGeometry relative="1" as="geometry" />
        </mxCell>
        <mxCell id="gshfcQeMo9viiWqzpoU_-43" value="$$h_{exp}$$" style="rounded=1;whiteSpace=wrap;html=1;fontSize=15;" parent="SKo15fLE6GQcyllnIHAm-68" vertex="1">
          <mxGeometry x="111.5" y="150" width="70" height="40" as="geometry" />
        </mxCell>
        <mxCell id="SKo15fLE6GQcyllnIHAm-16" value="$$(n * M \times T \times&amp;nbsp;p+1) = (n^* \times T \times p^*)$$" style="text;html=1;align=center;verticalAlign=middle;whiteSpace=wrap;rounded=0;fillColor=none;strokeColor=#b85450;gradientColor=none;fillStyle=auto;shadow=0;fontSize=10;" parent="SKo15fLE6GQcyllnIHAm-68" vertex="1">
          <mxGeometry x="182" y="158.38" width="204" height="22.75" as="geometry" />
        </mxCell>
        <mxCell id="je9HBZ-PjT7DeAHVx5pH-1" value="$$h_{proj}$$" style="rounded=1;whiteSpace=wrap;html=1;fontSize=15;" parent="SKo15fLE6GQcyllnIHAm-68" vertex="1">
          <mxGeometry x="111.5" y="270" width="70" height="40" as="geometry" />
        </mxCell>
        <mxCell id="je9HBZ-PjT7DeAHVx5pH-8" value="" style="edgeStyle=orthogonalEdgeStyle;rounded=0;orthogonalLoop=1;jettySize=auto;html=1;" parent="SKo15fLE6GQcyllnIHAm-68" source="je9HBZ-PjT7DeAHVx5pH-2" target="je9HBZ-PjT7DeAHVx5pH-1" edge="1">
          <mxGeometry relative="1" as="geometry" />
        </mxCell>
        <mxCell id="je9HBZ-PjT7DeAHVx5pH-2" value="$$f_{W_h}$$" style="ellipse;whiteSpace=wrap;html=1;fontSize=10;" parent="SKo15fLE6GQcyllnIHAm-68" vertex="1">
          <mxGeometry x="125.5" y="216" width="42" height="30" as="geometry" />
        </mxCell>
        <mxCell id="je9HBZ-PjT7DeAHVx5pH-5" value="Feed-forward NN" style="text;html=1;align=center;verticalAlign=middle;whiteSpace=wrap;rounded=0;" parent="SKo15fLE6GQcyllnIHAm-68" vertex="1">
          <mxGeometry x="46.5" y="216" width="75" height="30" as="geometry" />
        </mxCell>
        <mxCell id="je9HBZ-PjT7DeAHVx5pH-9" value="" style="endArrow=classic;html=1;rounded=0;exitX=0.5;exitY=1;exitDx=0;exitDy=0;entryX=0;entryY=0.5;entryDx=0;entryDy=0;" parent="SKo15fLE6GQcyllnIHAm-68" source="gshfcQeMo9viiWqzpoU_-46" target="gshfcQeMo9viiWqzpoU_-43" edge="1">
          <mxGeometry width="50" height="50" relative="1" as="geometry">
            <mxPoint x="250" y="256" as="sourcePoint" />
            <mxPoint x="300" y="206" as="targetPoint" />
            <Array as="points">
              <mxPoint x="87.5" y="170" />
            </Array>
          </mxGeometry>
        </mxCell>
        <mxCell id="je9HBZ-PjT7DeAHVx5pH-10" value="$$(n^* \times T \times p&#39;)$$" style="text;html=1;align=center;verticalAlign=middle;whiteSpace=wrap;rounded=0;fillColor=none;strokeColor=#b85450;gradientColor=none;fillStyle=auto;shadow=0;fontSize=10;" parent="SKo15fLE6GQcyllnIHAm-68" vertex="1">
          <mxGeometry x="181.5" y="278.63" width="94.5" height="22.75" as="geometry" />
        </mxCell>
        <mxCell id="je9HBZ-PjT7DeAHVx5pH-7" value="" style="edgeStyle=orthogonalEdgeStyle;rounded=0;orthogonalLoop=1;jettySize=auto;html=1;" parent="1" source="je9HBZ-PjT7DeAHVx5pH-1" target="SKo15fLE6GQcyllnIHAm-18" edge="1">
          <mxGeometry relative="1" as="geometry" />
        </mxCell>
      </root>
    </mxGraphModel>
  </diagram>
  <diagram id="ePtbMaemszxgn41MYKDM" name="Page-2">
    <mxGraphModel grid="1" page="1" gridSize="10" guides="1" tooltips="1" connect="1" arrows="1" fold="1" pageScale="1" pageWidth="827" pageHeight="1169" math="0" shadow="0">
      <root>
        <mxCell id="0" />
        <mxCell id="1" parent="0" />
      </root>
    </mxGraphModel>
  </diagram>
</mxfile>
